<svg viewBox="0 0 64 64" xmlns="http://www.w3.org/2000/svg">
  <circle cx="32" cy="32" r="32" fill="#C4A044"/>
  <circle cx="32" cy="32" r="28" fill="#15707F"/>
  <rect x="16" y="38" width="32" height="3" rx="1" fill="#C4A044"/>
  <rect x="18" y="43" width="28" height="2.5" rx="1" fill="#C4A044"/>
  <path d="M22,38 L22,30 Q22,18 32,15 Q42,18 42,30 L42,38 Z" fill="#C4A044"/>
  <path d="M26,38 L26,31 Q26,21 32,18 Q38,21 38,31 L38,38 Z" fill="#15707F"/>
  <path d="M28,28 L32,18 L36,28 L32,25 Z" fill="#C4A044"/>
  <path d="M32,15 L31,12 L32,8 L33,12 Z" fill="#C4A044"/>
  <circle cx="32" cy="7" r="3" fill="#C4A044"/>
</svg>
